<svg xmlns="http://www.w3.org/2000/svg" xmlns:xlink="http://www.w3.org/1999/xlink" version="1.1" class="" pagealignment="none" x="0px" y="0px" width="130px" height="59px" viewBox="0 0 130 59" enable-background="new 0 0 130 59" xml:space="preserve" bodybackgroundcolor="rgba(209,24,24,0)"><defs></defs><g type="LAYER" name="workspace" id="workspace" locked="true"></g><path width="33.07" height="44.55688" stroke-miterlimit="3" stroke="none" fill="#ffffff" d="M16.66,0 L21.57,0 C25.47,0.3 29.32,1.06 32.99,2.42 C32.32,5.05 31.63,7.67 30.9,10.29 C25.62,8.58 19.71,7.31 14.31,9.16 C11.02,10.02 10.28,15 13.41,16.56 C18.54,19.15 24.56,17.55 30.07,18.01 C30.05,20.49 30.01,22.97 29.98,25.44 C25.29,25.57 20.55,25.08 15.91,25.87 C13.29,26.35 10.15,27.97 10.12,31.02 C10.06,33.72 12.87,35.15 15.15,35.61 C20.47,36.62 25.95,35.64 31.07,34.08 C31.76,36.62 32.43,39.16 33.07,41.71 C25.2,44.38 16.51,45.68 8.39,43.39 C4.38,42.29 0.84,39.25 0,35.04 L0,31.81 C0.63,26.8 4.97,23.59 9.33,21.83 C3.82,20.43 0.36,14.5 2.07,9.03 C3.78,2.75 10.8,0.31 16.66,0 Z "></path><path transform="matrix(1 0 0 1 35.57768924302783 -0.23406374501983862)" width="27.46454" height="27.02248" stroke-miterlimit="3" stroke="none" fill="#ffffff" d="M11.11,21 C14.64,17.23 20.46,15.96 25.26,17.83 C28.47,19.07 29.87,22.66 29.86,25.88 C29.94,31.92 29.84,37.96 29.88,44 C26.96,44 24.03,44 21.1,44 C21.02,38.69 21.35,33.37 20.96,28.08 C19.9,23.26 11.62,24.5 11.3,29.22 C11.01,34.14 11.28,39.07 11.19,44 C8.27,44 5.35,44 2.43,43.99 C2.43,35.16 2.42,26.33 2.44,17.5 C5.36,17.5 8.28,17.5 11.2,17.5 C11.18,18.38 11.13,20.13 11.11,21 Z "></path><path transform="matrix(1 0 0 1 35.57768924302783 -0.23406374501983862)" width="31.050000000000004" height="26.51" stroke-miterlimit="3" stroke="none" fill="#ffffff" d="M32.96,17.5 C35.94,17.49 38.92,17.49 41.9,17.49 C43.99,23.4 46.03,29.34 48.15,35.24 C50.53,29.34 52.82,23.4 55.17,17.49 C58.12,17.5 61.06,17.5 64.01,17.5 C60.33,26.35 56.61,35.17 52.9,44 C49.49,44 46.08,44 42.67,44 C39.43,35.17 36.19,26.34 32.96,17.5 Z "></path><path transform="matrix(1 0 0 1 35.57768924302783 -0.23406374501983862)" width="27.260000000000005" height="41.510000000000005" stroke-miterlimit="3" stroke="none" fill="#ffffff" d="M70.11,40.93 C65.62,33.99 67.13,25.13 68.66,17.5 C71.34,17.5 74.03,17.5 76.71,17.49 C76.04,23.12 74.45,29.13 76.52,34.64 C77.89,38.15 82.99,37.56 84.52,34.49 C87.43,29.32 85.52,23.09 85.46,17.49 C88.04,17.5 90.62,17.51 93.2,17.51 C93.48,21.07 93.8,24.63 94,28.2 L94,36.43 C93.56,42.61 92.27,49.22 87.89,53.89 C84.98,57.1 80.7,58.63 76.46,59 L73.01,59 C70.85,58.56 68.77,57.83 66.74,57.01 C67.7,54.66 68.67,52.32 69.64,49.99 C73.36,51.32 77.75,51.58 81.11,49.19 C84.07,47.3 85.09,43.79 86.22,40.68 C82.42,45.8 73.85,46.41 70.11,40.93 Z "></path></svg>
