<?xml version="1.0" encoding="utf-8"?>
<svg version="1.0" id="Layer_1" xmlns="http://www.w3.org/2000/svg" xmlns:xlink="http://www.w3.org/1999/xlink" x="0px" y="0px"
	 viewBox="0 0 25.1 9" style="enable-background:new 0 0 25.1 9;" xml:space="preserve">
<style type="text/css">
	.st0{fill:#FFFFFF;}
</style>
<g id="XMLID_2_">
	<path id="XMLID_3_" class="st0" d="M0,0h3.5c1.6,0,2.7,0.8,2.7,2.1c0,1.1-0.7,1.7-1.4,2c1,0.3,1.9,0.8,1.9,2c0,1.4-1.2,2.3-3,2.3H0
		V0z M3.4,3.9c1.3,0,2.2-0.6,2.2-1.8c0-0.9-0.8-1.5-2.1-1.5H0.6v3.3H3.4z M3.7,7.8C5.1,7.8,6,7.2,6,6.1c0-1-0.9-1.6-2.6-1.6H0.6v3.4
		H3.7z"/>
	<path id="XMLID_7_" class="st0" d="M8.1,5.3c0-1.8,1.2-3.2,2.9-3.2c1.7,0,2.8,1.4,2.8,3.2c0,0.1,0,0.1,0,0.2H8.7
		C8.8,7.1,9.9,8,11.1,8c0.9,0,1.6-0.4,2.1-1l0.4,0.4c-0.6,0.7-1.4,1.2-2.5,1.2C9.5,8.5,8.1,7.3,8.1,5.3z M13.2,5
		c-0.1-1.2-0.8-2.4-2.2-2.4c-1.2,0-2.1,1-2.3,2.4H13.2z"/>
	<path id="XMLID_10_" class="st0" d="M15.9,6.8v-4H15V2.3h0.9v-2h0.6v2h2.1v0.5h-2.1v3.9C16.5,7.6,17,8,17.7,8
		c0.3,0,0.6-0.1,0.9-0.2v0.6c-0.3,0.1-0.6,0.2-1,0.2C16.6,8.5,15.9,8,15.9,6.8z"/>
	<path id="XMLID_12_" class="st0" d="M19.8,6.6c0-1.3,1.1-2,2.7-2c0.9,0,1.4,0.1,2,0.3V4.6c0-1.2-0.8-1.9-2-1.9
		c-0.7,0-1.4,0.2-1.9,0.5l-0.2-0.5c0.7-0.3,1.3-0.5,2.2-0.5c0.8,0,1.5,0.2,1.9,0.7c0.4,0.4,0.6,1,0.6,1.7v3.8h-0.6v-1
		c-0.4,0.6-1.2,1.2-2.3,1.2C21.1,8.5,19.8,7.9,19.8,6.6z M24.5,6.1V5.4c-0.5-0.1-1.2-0.3-2.1-0.3c-1.3,0-2,0.6-2,1.5
		c0,0.9,0.8,1.4,1.8,1.4C23.5,8,24.5,7.2,24.5,6.1z"/>
</g>
</svg>
